HIERARCHY
ROOT Hips
{
	OFFSET 48.726002 -9.941415 92.324898
	CHANNELS 6 Xposition Yposition Zposition Xrotation Yrotation Zrotation
	JOINT spine
	{
		OFFSET 0.000000 -0.429886 7.475601
		CHANNELS 3 Xrotation Yrotation Zrotation
		JOINT spine1
		{
			OFFSET 0.000000 -0.000002 9.923012
			CHANNELS 3 Xrotation Yrotation Zrotation
			JOINT spine2
			{
				OFFSET 0.000000 -0.000001 9.508041
				CHANNELS 3 Xrotation Yrotation Zrotation
				JOINT Neck
				{
					OFFSET 0.000000 -1.163845 24.411102
					CHANNELS 3 Xrotation Yrotation Zrotation
					JOINT Head
					{
						OFFSET 0.000000 -0.000001 7.375229
						CHANNELS 3 Xrotation Yrotation Zrotation
						End Site
						{
							OFFSET 0.000000 5.887407 17.852203
						}
					}
				}
				JOINT RightShoulder
				{
					OFFSET -4.003559 0.557467 10.267899
					CHANNELS 3 Xrotation Yrotation Zrotation
					JOINT RightArm
					{
						OFFSET 0.000000 -0.000002 13.467300
						CHANNELS 3 Xrotation Yrotation Zrotation
						JOINT RightArmRoll
						{
							OFFSET 0.000000 -0.000002 6.798584
							CHANNELS 3 Xrotation Yrotation Zrotation
							JOINT RightForeArm
							{
								OFFSET 0.000000 -0.000003 19.801804
								CHANNELS 3 Xrotation Yrotation Zrotation
								JOINT RightForeArmRoll
								{
									OFFSET 0.000000 -0.000001 7.629059
									CHANNELS 3 Xrotation Yrotation Zrotation
									JOINT RightHand
									{
										OFFSET 0.000000 -0.000003 15.309799
										CHANNELS 3 Xrotation Yrotation Zrotation
										End Site
										{
											OFFSET 0.000000 0.000000 0.100006
										}
									}
								}
							}
						}
					}
				}
				JOINT LeftShoulder
				{
					OFFSET 4.003559 0.557467 10.267899
					CHANNELS 3 Xrotation Yrotation Zrotation
					JOINT LeftArm
					{
						OFFSET 0.000000 -0.000002 13.467300
						CHANNELS 3 Xrotation Yrotation Zrotation
						JOINT LeftArmRoll
						{
							OFFSET 0.000000 -0.000002 6.798584
							CHANNELS 3 Xrotation Yrotation Zrotation
							JOINT LeftForeArm
							{
								OFFSET 0.000000 -0.000003 19.801804
								CHANNELS 3 Xrotation Yrotation Zrotation
								JOINT LeftForeArmRoll
								{
									OFFSET 0.000000 -0.000001 7.629044
									CHANNELS 3 Xrotation Yrotation Zrotation
									JOINT LeftHand
									{
										OFFSET 0.000000 -0.000003 15.309799
										CHANNELS 3 Xrotation Yrotation Zrotation
										End Site
										{
											OFFSET 0.000000 0.000000 0.100006
										}
									}
								}
							}
						}
					}
				}
			}
		}
	}
	JOINT RightUpLeg
	{
		OFFSET -6.626091 1.019270 -1.215050
		CHANNELS 3 Xrotation Yrotation Zrotation
		JOINT RightUpLegRoll
		{
			OFFSET 0.000000 -0.000003 17.951698
			CHANNELS 3 Xrotation Yrotation Zrotation
			JOINT RightLeg
			{
				OFFSET 0.000000 0.000004 -22.230400
				CHANNELS 3 Xrotation Yrotation Zrotation
				JOINT RightLegRoll
				{
					OFFSET 0.000000 -0.000004 22.303200
					CHANNELS 3 Xrotation Yrotation Zrotation
					JOINT RightFoot
					{
						OFFSET 0.000000 -0.000003 18.563599
						CHANNELS 3 Xrotation Yrotation Zrotation
						JOINT RightToeBase
						{
							OFFSET 0.000000 -0.000002 15.518303
							CHANNELS 3 Xrotation Yrotation Zrotation
							End Site
							{
								OFFSET 0.006577 0.866261 7.515396
							}
						}
					}
				}
			}
		}
	}
	JOINT LeftUpLeg
	{
		OFFSET 6.626091 1.019270 -1.215050
		CHANNELS 3 Xrotation Yrotation Zrotation
		JOINT LeftUpLegRoll
		{
			OFFSET 0.000000 -0.000003 17.951797
			CHANNELS 3 Xrotation Yrotation Zrotation
			JOINT LeftLeg
			{
				OFFSET 0.000000 -0.000003 22.230301
				CHANNELS 3 Xrotation Yrotation Zrotation
				JOINT LeftLegRoll
				{
					OFFSET 0.000000 -0.000004 22.509293
					CHANNELS 3 Xrotation Yrotation Zrotation
					JOINT LeftFoot
					{
						OFFSET 0.000000 -0.000003 18.357498
						CHANNELS 3 Xrotation Yrotation Zrotation
						JOINT LeftToeBase
						{
							OFFSET 0.000000 -0.000003 15.518295
							CHANNELS 3 Xrotation Yrotation Zrotation
							End Site
							{
								OFFSET -0.029476 0.866262 7.515381
							}
						}
					}
				}
			}
		}
	}
}
MOTION
Frames: 4
Frame Time: 0.041667
47.713501 -10.944510 92.296402 -7.849803 2.018315 2.272182 -1.135379 -0.456789 -0.075667 1.742406 -0.919852 -0.156664 3.387559 -0.921950 -0.145740 21.137202 7.276817 -5.081692 3.216582 -8.334105 -3.837301 -8.057714 -72.163606 -10.407534 -39.959038 -99.788934 -21.035931 -0.000002 -0.000001 -0.000007 0.739524 -8.664847 -0.755311 0.000002 -0.000000 -3.007430 -5.000221 -7.998873 0.000144 2.840200 73.976925 -1.305105 -27.230149 98.655170 4.443459 0.000004 0.000001 -0.000008 0.041426 4.778510 0.890468 0.000000 0.000001 3.026758 -5.000198 7.999420 -0.000062 2.958136 173.159038 -3.023723 -179.999991 0.000005 -1.170007 168.168287 -3.894729 -0.842228 0.000001 -0.000004 0.160298 71.640468 6.759743 2.315026 25.456967 -7.355615 0.000000 -3.919329 168.300670 -5.404262 -0.000004 -0.000005 -1.262570 -27.614255 3.486241 1.559154 0.000001 0.000001 -0.699665 71.978159 -6.693324 -2.456507 28.273976 7.164723 -4.085367 
47.713898 -10.957514 92.299606 -7.852820 2.021747 2.254623 -1.132978 -0.456900 -0.074688 1.746414 -0.919568 -0.155596 3.391559 -0.921631 -0.144669 21.095029 7.348542 -5.078904 3.225265 -8.370597 -3.829057 -8.028371 -72.158367 -10.374966 -39.890156 -99.849852 -20.814566 -0.000001 0.000000 -0.000006 0.747360 -8.550803 -0.765161 0.000002 -0.000000 -3.007370 -5.000221 -7.998873 0.000146 2.747507 73.967213 -1.205939 -27.292533 98.663551 4.568721 0.000003 0.000001 -0.000008 0.041426 4.829720 0.887303 0.000001 0.000001 3.026550 -5.000198 7.999420 -0.000061 2.954248 173.156019 -3.025262 -179.999991 0.000005 -1.171003 168.162263 -3.894643 -0.842635 0.000000 -0.000004 0.160331 71.640597 6.759803 2.314626 25.456965 -7.355615 -0.000001 -3.911227 168.298552 -5.408220 -0.000004 -0.000004 -1.262971 -27.608805 3.488170 1.559631 -0.000000 0.000001 -0.699665 71.973979 -6.693306 -2.456654 28.274582 7.164721 -4.086985 
47.706501 -10.950914 92.301598 -7.855216 2.025341 2.237146 -1.130797 -0.457063 -0.073615 1.749977 -0.919373 -0.154412 3.395119 -0.921400 -0.143477 21.054437 7.421056 -5.076362 3.233158 -8.407467 -3.821033 -7.995781 -72.153859 -10.338877 -39.795056 -99.908872 -20.569784 -0.000003 0.000000 -0.000006 0.757212 -8.439085 -0.774606 0.000000 -0.000000 -3.007289 -5.000221 -7.998872 0.000145 2.655513 73.957254 -1.107551 -27.357059 98.672205 4.697183 0.000004 0.000000 -0.000004 0.041425 4.881830 0.884197 0.000001 0.000001 3.026351 -5.000198 7.999420 -0.000061 2.948990 173.152986 -3.026810 -179.999991 0.000005 -1.171004 168.155350 -3.894545 -0.843105 0.000002 -0.000004 0.160381 71.641663 6.759784 2.314259 25.456969 -7.355616 -0.000001 -3.903341 168.296462 -5.412327 -0.000004 -0.000005 -1.263411 -27.602649 3.490052 1.560072 -0.000001 0.000001 -0.699665 71.969273 -6.693304 -2.456735 28.275178 7.164716 -4.088710 
47.703300 -10.929316 92.305794 -7.857176 2.029047 2.219718 -1.128748 -0.457264 -0.072477 1.753217 -0.919241 -0.153141 3.398371 -0.921231 -0.142202 21.014894 7.494125 -5.073947 3.240491 -8.444599 -3.813167 -7.960960 -72.149945 -10.300368 -39.682631 -99.966464 -20.309638 -0.000002 0.000000 -0.000004 0.768477 -8.328981 -0.783782 0.000001 -0.000000 -3.007179 -5.000221 -7.998873 0.000145 2.564048 73.947152 -1.009749 -27.423467 98.680920 4.828207 0.000003 0.000002 -0.000005 0.041425 4.934540 0.881118 0.000001 0.000001 3.026148 -5.000199 7.999420 -0.000062 2.942764 173.149967 -3.028350 -179.999991 0.000005 -1.171004 168.147728 -3.894437 -0.843624 0.000000 -0.000005 0.160443 71.643152 6.759788 2.313870 25.456965 -7.355614 -0.000000 -3.895612 168.293361 -5.416454 -0.000004 -0.000003 -1.263880 -27.595991 3.491912 1.560499 0.000001 0.000001 -0.699665 71.964034 -6.693313 -2.456952 28.275783 7.164718 -4.090510 
